<svg width="20" height="20" viewBox="0 0 20 20" fill="none" xmlns="http://www.w3.org/2000/svg">
<path fill-rule="evenodd" clip-rule="evenodd" d="M3.33329 9.16669C3.33329 5.94503 5.94496 3.33335 9.16663 3.33335C12.3883 3.33335 15 5.94503 15 9.16669C15 10.7383 14.3784 12.1648 13.3678 13.2137C13.3393 13.2356 13.3118 13.2596 13.2857 13.2858C13.2596 13.3119 13.2355 13.3393 13.2136 13.3679C12.1647 14.3785 10.7382 15 9.16663 15C5.94496 15 3.33329 12.3883 3.33329 9.16669ZM13.848 15.0266C12.565 16.053 10.9375 16.6667 9.16663 16.6667C5.02449 16.6667 1.66663 13.3088 1.66663 9.16669C1.66663 5.02455 5.02449 1.66669 9.16663 1.66669C13.3088 1.66669 16.6666 5.02455 16.6666 9.16669C16.6666 10.9375 16.0529 12.565 15.0265 13.8481L18.0892 16.9108C18.4146 17.2362 18.4146 17.7638 18.0892 18.0893C17.7638 18.4147 17.2361 18.4147 16.9107 18.0893L13.848 15.0266Z" fill="#190134"/>
</svg>
