<svg width="20" height="20" xmlns="http://www.w3.org/2000/svg">
<g clip-path="url(#clip0_53_493)">
<path fill-rule="evenodd" clip-rule="evenodd" d="M5.96072 1.07739C6.117 0.92111 6.32897 0.833313 6.54998 0.833313H13.45C13.671 0.833313 13.883 0.92111 14.0392 1.07739L18.9226 5.96072C19.0789 6.117 19.1666 6.32897 19.1666 6.54998V13.45C19.1666 13.671 19.0789 13.883 18.9226 14.0392L14.0392 18.9226C13.883 19.0788 13.671 19.1666 13.45 19.1666H6.54998C6.32897 19.1666 6.117 19.0788 5.96072 18.9226L1.07739 14.0392C0.92111 13.883 0.833313 13.671 0.833313 13.45V6.54998C0.833313 6.32897 0.92111 6.117 1.07739 5.96072L5.96072 1.07739ZM6.89516 2.49998L2.49998 6.89516V13.1048L6.89516 17.5H13.1048L17.5 13.1048V6.89516L13.1048 2.49998H6.89516ZM9.16665 13.3333C9.16665 12.8731 9.53975 12.5 9.99999 12.5H10.0083C10.4686 12.5 10.8417 12.8731 10.8417 13.3333C10.8417 13.7935 10.4686 14.1666 10.0083 14.1666H9.99999C9.53975 14.1666 9.16665 13.7935 9.16665 13.3333ZM10.8333 6.66665C10.8333 6.20641 10.4602 5.83331 9.99999 5.83331C9.53975 5.83331 9.16665 6.20641 9.16665 6.66665V9.99998C9.16665 10.4602 9.53975 10.8333 9.99999 10.8333C10.4602 10.8333 10.8333 10.4602 10.8333 9.99998V6.66665Z" fill="#FF785A"/>
</g>
<defs>
<clipPath id="clip0_53_493">
<rect width="20" height="20" fill="white"/>
</clipPath>
</defs>
</svg>
