<svg width="20" height="20" viewBox="0 0 20 20" fill="none" xmlns="http://www.w3.org/2000/svg">
<g clip-path="url(#clip0_57_23)">
<path fill-rule="evenodd" clip-rule="evenodd" d="M1.42259 0.244078C1.09715 -0.0813592 0.569515 -0.0813592 0.244078 0.244078C-0.0813592 0.569515 -0.0813592 1.09715 0.244078 1.42259L3.78732 4.96583C2.28913 6.26322 1.03828 7.82558 0.0989124 9.57752C-0.0289541 9.81599 -0.0330737 10.1017 0.0878643 10.3438L0.833333 9.9713C0.0878643 10.3438 0.0880045 10.344 0.0881576 10.3443L0.0885287 10.3451L0.0895037 10.347L0.092385 10.3527L0.101865 10.3713C0.109834 10.3868 0.121102 10.4085 0.135643 10.436C0.16472 10.491 0.206923 10.5692 0.262058 10.6673C0.372264 10.8634 0.534513 11.1396 0.747291 11.4693C1.17181 12.1271 1.80289 13.0063 2.62949 13.8887C4.26745 15.6372 6.7723 17.5 10.0325 17.5L10.0461 17.4999C11.7623 17.4718 13.4316 16.9669 14.8703 16.0489L18.5774 19.7559C18.9028 20.0814 19.4305 20.0814 19.7559 19.7559C20.0814 19.4305 20.0814 18.9028 19.7559 18.5774L15.7422 14.5637C15.703 14.4869 15.6517 14.4159 15.5895 14.3536L12.3982 11.1599L12.3923 11.154L8.85146 7.61045L8.84584 7.60482L5.65441 4.41097C5.58693 4.34344 5.51041 4.28971 5.42854 4.25003L1.42259 0.244078ZM11.7103 12.8888L13.6569 14.8354C12.5541 15.4655 11.3059 15.8112 10.0257 15.8333C7.43497 15.8307 5.34261 14.3471 3.84582 12.7493C3.10438 11.9578 2.5333 11.1632 2.14767 10.5656C1.99772 10.3332 1.87664 10.132 1.78526 9.97395C2.62035 8.52488 3.69756 7.23082 4.96921 6.14773L7.11563 8.29414C7.04154 8.41583 6.97514 8.54239 6.91693 8.67312C6.73432 9.08328 6.63613 9.52603 6.62822 9.97495C6.6203 10.4239 6.70282 10.8698 6.87086 11.2862C7.0389 11.7025 7.28904 12.0808 7.60638 12.3983C7.92372 12.7159 8.30176 12.9663 8.71797 13.1346C9.13418 13.3028 9.58001 13.3854 10.0289 13.3775C10.4777 13.3696 10.9203 13.2713 11.3304 13.0884C11.4614 13.03 11.5883 12.9633 11.7103 12.8888ZM8.36697 9.54548L10.4596 11.6381C10.3107 11.6837 10.1558 11.7083 9.99943 11.7111C9.77455 11.7151 9.55116 11.6737 9.34257 11.5894C9.13399 11.505 8.94447 11.3795 8.78534 11.2203C8.6262 11.061 8.50071 10.8713 8.41639 10.6624C8.33207 10.4534 8.29065 10.2297 8.29462 10.0043C8.29737 9.84842 8.32182 9.69401 8.36697 9.54548ZM16.9744 13.0743C16.6173 12.784 16.563 12.2592 16.8533 11.902C17.3393 11.3042 17.7779 10.6674 18.1645 9.99736C18.0736 9.84037 17.9533 9.64074 17.8046 9.41043C17.4204 8.81557 16.8515 8.0245 16.1128 7.23661C14.6217 5.64602 12.5374 4.16925 9.95675 4.16666C9.43101 4.17573 8.91073 4.23955 8.40378 4.35537C7.95511 4.45787 7.50829 4.17725 7.40578 3.72857C7.30327 3.27989 7.5839 2.83307 8.03258 2.73057C8.65401 2.58859 9.29186 2.51064 9.93633 2.5001L9.94995 2.49999C13.1995 2.49999 15.6962 4.35536 17.3287 6.09671C18.1526 6.97549 18.7816 7.85109 19.2047 8.50622C19.4167 8.83459 19.5785 9.10969 19.6883 9.30498C19.7433 9.40268 19.7853 9.48057 19.8143 9.53536C19.8288 9.56275 19.8401 9.58439 19.848 9.59985L19.8575 9.61836L19.8603 9.62405L19.8613 9.62599L19.8617 9.62673C19.8618 9.62703 19.862 9.62731 19.1166 9.99999L19.862 9.62731C19.9831 9.8695 19.9789 10.1554 19.8509 10.394C19.3638 11.3017 18.7928 12.1583 18.1467 12.9532C17.8564 13.3104 17.3315 13.3646 16.9744 13.0743Z" fill="#190134"/>
</g>
<defs>
<clipPath id="clip0_57_23">
<rect width="20" height="20" fill="white"/>
</clipPath>
</defs>
</svg>
